#N canvas 571 112 954 599 12;
#X obj 51 414 netsend -u -b;
#X obj 52 479 oscparse;
#X obj 37 32 loadbang;
#X msg 37 61 connect 10.0.0.28 1000;
#X obj 52 513 print;
#X obj 52 454 netreceive -u -b 1001;
#X msg 37 90 disconnect;
#X msg 368 265 clear;
#X obj 368 293 list;
#X obj 368 323 oscformat -f blob /disp;
#X floatatom 428 228 5 0 0 0 - - - 0;
#X floatatom 116 138 5 0 0 0 - - - 0;
#X obj 116 186 list;
#X obj 116 210 oscformat -f siisi /disp;
#X msg 116 162 write 4 2 ham \$1;
#X obj 746 87 tgl 19 0 empty empty empty 0 -10 0 12 #fcfcfc #000000 #000000 0 1;
#X obj 586 212 pack i i;
#X obj 659 85 +~ 1;
#X obj 659 149 snapshot~;
#X obj 659 174 int;
#X floatatom 687 174 5 0 0 0 - - - 0;
#X obj 659 109 *~ 2;
#X obj 586 85 +~ 1;
#X obj 586 149 snapshot~;
#X obj 586 174 int;
#X obj 586 109 *~ 10;
#X floatatom 614 174 5 0 0 0 - - - 0;
#X obj 586 237 t l b;
#X msg 687 266 clear;
#X msg 586 266 write \$1 \$2 #;
#X msg 362 215 off;
#X msg 328 249 on;
#X obj 746 111 metro 34;
#X obj 659 59 osc~ 2.5;
#X obj 586 59 osc~ 0.7;
#X msg 423 263 write 4 1 clay \$1;
#X connect 1 0 4 0;
#X connect 2 0 3 0;
#X connect 3 0 0 0;
#X connect 5 0 1 0;
#X connect 6 0 0 0;
#X connect 7 0 8 0;
#X connect 8 0 9 0;
#X connect 9 0 0 0;
#X connect 10 0 35 0;
#X connect 11 0 14 0;
#X connect 12 0 13 0;
#X connect 13 0 0 0;
#X connect 14 0 12 0;
#X connect 15 0 32 0;
#X connect 16 0 27 0;
#X connect 17 0 21 0;
#X connect 18 0 19 0;
#X connect 19 0 20 0;
#X connect 19 0 16 1;
#X connect 21 0 18 0;
#X connect 22 0 25 0;
#X connect 23 0 24 0;
#X connect 24 0 16 0;
#X connect 24 0 26 0;
#X connect 25 0 23 0;
#X connect 27 0 29 0;
#X connect 27 1 28 0;
#X connect 28 0 8 0;
#X connect 29 0 8 0;
#X connect 30 0 8 0;
#X connect 31 0 8 0;
#X connect 32 0 18 0;
#X connect 32 0 23 0;
#X connect 33 0 17 0;
#X connect 34 0 22 0;
#X connect 35 0 8 0;
