#N canvas 1420 125 656 383 12;
#X obj 19 270 netsend -u -b;
#X obj 297 177 oscparse;
#X obj 163 7 loadbang;
#X obj 25 83 tgl 19 0 empty empty empty 0 -10 0 12 #fcfcfc #000000 #000000 0 1;
#X obj 25 107 sel 0 1;
#X obj 24 59 metro 1000;
#X msg 163 36 connect 10.0.0.28 1000;
#X obj 297 211 print;
#X obj 297 152 netreceive -u -b 1001;
#X obj 20 219 list prepend send;
#X obj 20 243 list trim;
#X msg 163 65 disconnect;
#X obj 21 163 symbol;
#X obj 20 190 oscformat -f blob /lcd;
#X msg 22 132 pure\ data;
#X msg 112 132 data\ pure;
#X obj 25 9 loadbang;
#X msg 25 33 1;
#X connect 1 0 7 0;
#X connect 2 0 6 0;
#X connect 3 0 4 0;
#X connect 4 0 14 0;
#X connect 4 1 15 0;
#X connect 5 0 3 0;
#X connect 6 0 0 0;
#X connect 8 0 1 0;
#X connect 9 0 10 0;
#X connect 10 0 0 0;
#X connect 11 0 0 0;
#X connect 12 0 13 0;
#X connect 13 0 9 0;
#X connect 14 0 12 0;
#X connect 15 0 12 0;
#X connect 16 0 17 0;
#X connect 17 0 5 0;
