#N canvas 37 657 648 592 12;
#X obj 23 348 netsend -u -b;
#X obj 24 413 oscparse;
#X obj 163 7 loadbang;
#X obj 25 83 tgl 19 0 empty empty empty 0 -10 0 12 #fcfcfc #000000 #000000 0 1;
#X msg 163 36 connect 10.0.0.28 1000;
#X obj 24 447 print;
#X obj 24 388 netreceive -u -b 1001;
#X obj 24 297 list prepend send;
#X obj 24 321 list trim;
#X msg 163 65 disconnect;
#X obj 25 241 symbol;
#X obj 24 268 oscformat -f blob /lcd;
#X obj 25 9 loadbang;
#X obj 25 59 metro 1000;
#X obj 411 404 + 1;
#X obj 375 336 tgl 19 0 empty empty empty 0 -10 0 12 #fcfcfc #000000 #000000 0 1;
#X obj 375 404 int;
#X floatatom 374 474 5 0 0 0 - - - 0;
#X obj 25 33 tgl 19 0 empty empty empty 0 -10 0 12 #fcfcfc #000000 #000000 0 1;
#X obj 375 437 % 10000;
#X obj 375 366 metro 50;
#X floatatom 107 19 5 0 0 0 - - - 0;
#X msg 182 149 ####################++++++++++++++++++++####################++++++++++++++++++++, f 20;
#X msg 25 149 ++++++++++++++++++++####################++++++++++++++++++++####################, f 20;
#X obj 25 107 sel 0 1;
#X connect 1 0 5 0;
#X connect 2 0 4 0;
#X connect 3 0 24 0;
#X connect 4 0 0 0;
#X connect 6 0 1 0;
#X connect 7 0 8 0;
#X connect 8 0 0 0;
#X connect 9 0 0 0;
#X connect 10 0 11 0;
#X connect 11 0 7 0;
#X connect 12 0 18 0;
#X connect 13 0 3 0;
#X connect 14 0 16 1;
#X connect 15 0 20 0;
#X connect 16 0 14 0;
#X connect 16 0 19 0;
#X connect 17 0 11 0;
#X connect 18 0 13 0;
#X connect 19 0 17 0;
#X connect 20 0 16 0;
#X connect 21 0 13 1;
#X connect 22 0 10 0;
#X connect 23 0 10 0;
#X connect 24 0 23 0;
#X connect 24 1 22 0;
