#N canvas 37 657 648 592 12;
#X obj 23 348 netsend -u -b;
#X obj 24 413 oscparse;
#X obj 163 7 loadbang;
#X obj 25 83 tgl 19 0 empty empty empty 0 -10 0 12 #fcfcfc #000000 #000000 0 1;
#X obj 25 107 sel 0 1;
#X msg 163 36 connect 10.0.0.28 1000;
#X obj 24 447 print;
#X obj 24 388 netreceive -u -b 1001;
#X obj 24 297 list prepend send;
#X obj 24 321 list trim;
#X msg 163 65 disconnect;
#X obj 25 241 symbol;
#X obj 24 268 oscformat -f blob /lcd;
#X obj 25 9 loadbang;
#X obj 25 59 metro 1000;
#X msg 48 157 -[\ I\ Love\ You\ ]--[\ :)\ Binh-An\ ]-;
#X msg 25 132 -[\ Binh-An\ :)\ ]--[\ I\ Love\ You\ ]-;
#X obj 411 404 + 1;
#X obj 375 336 tgl 19 0 empty empty empty 0 -10 0 12 #fcfcfc #000000 #000000 0 1;
#X obj 375 404 int;
#X floatatom 374 474 5 0 0 0 - - - 0;
#X obj 25 33 tgl 19 0 empty empty empty 0 -10 0 12 #fcfcfc #000000 #000000 0 1;
#X obj 375 437 % 10000;
#X obj 375 366 metro 50;
#X connect 1 0 6 0;
#X connect 2 0 5 0;
#X connect 3 0 4 0;
#X connect 4 0 16 0;
#X connect 4 1 15 0;
#X connect 5 0 0 0;
#X connect 7 0 1 0;
#X connect 8 0 9 0;
#X connect 9 0 0 0;
#X connect 10 0 0 0;
#X connect 11 0 12 0;
#X connect 12 0 8 0;
#X connect 13 0 21 0;
#X connect 14 0 3 0;
#X connect 15 0 11 0;
#X connect 16 0 11 0;
#X connect 17 0 19 1;
#X connect 18 0 23 0;
#X connect 19 0 17 0;
#X connect 19 0 22 0;
#X connect 21 0 14 0;
#X connect 22 0 20 0;
#X connect 23 0 19 0;
