#N canvas 1387 42 843 730 12;
#X obj 38 449 oscparse;
#X obj 38 422 netreceive -u -b 1001;
#X obj 38 375 netsend -u -b;
#X obj 38 256 list prepend send;
#X obj 38 286 list trim;
#X obj 114 286 loadbang;
#X msg 114 315 connect 127.0.0.1 1000;
#X obj 38 32 loadbang;
#X obj 38 85 metro 1000;
#X msg 38 61 1;
#X obj 74 130 + 1;
#X obj 38 130 int;
#X msg 114 340 disconnect;
#X msg 280 315 connect 10.0.0.28 1000;
#X msg 213 160 lcd_off;
#X msg 280 160 lcd_on;
#X msg 38 157 Pd\\\ Testo\\\ \$1;
#X obj 280 135 delay 50;
#X obj 486 354 dac~;
#X obj 396 52 loadbang;
#X msg 396 79 \; pd dsp 1 \;;
#X obj 38 481 list trim;
#X obj 38 527 route adc;
#X obj 38 634 route 1 2 3 4 5 6 7 8 9 10 11 12 13 14 15 16;
#X obj 38 554 unpack s f;
#X obj 38 606 pack f f;
#X obj 38 580 f;
#X obj 356 529 route sw;
#X obj 356 557 unpack s f;
#X obj 356 609 pack f f;
#X obj 356 583 f;
#X obj 356 634 route 1 2 3 4 5 6 7 8 9 10 11 12 13 14 15 16;
#X obj 673 556 unpack s f;
#X obj 673 608 pack f f;
#X obj 673 582 f;
#X obj 673 528 route enc;
#X obj 673 634 route 1 2;
#X obj 95 673 s adc_4;
#X obj 570 84 r adc_4;
#X obj 570 140 osc~;
#X obj 486 52 sig~ 220;
#X obj 486 234 osc~;
#X obj 552 235 osc~;
#X obj 552 52 sig~ 330;
#X obj 486 291 *~;
#X obj 552 291 *~;
#X obj 432 668 s sw_5;
#X obj 616 170 r sw_5;
#X obj 486 205 *~;
#X obj 552 207 *~;
#X obj 570 169 *~ 2;
#X obj 570 112 expr ( $f1 / 100 ) * 55 + 55;
#X obj 486 319 *~ 0.7;
#X obj 552 320 *~ 0.7;
#X obj 616 197 sel 1;
#X obj 616 249 vline~;
#X msg 616 223 0 20 \, 0.7 50 20 \, 0 10000 70;
#X obj 119 32 tgl 19 0 empty empty empty 0 -10 0 12 #fcfcfc #000000 #000000 0 1;
#X obj 38 184 list;
#X obj 212 191 list;
#X obj 38 220 oscformat /lcd;
#X obj 212 218 oscformat /cmd;
#X obj 703 198 bng 19 250 50 0 empty empty empty 0 -10 0 12 #fcfcfc #000000 #000000;
#X connect 0 0 21 0;
#X connect 1 0 0 0;
#X connect 3 0 4 0;
#X connect 4 0 2 0;
#X connect 5 0 6 0;
#X connect 6 0 2 0;
#X connect 7 0 9 0;
#X connect 8 0 11 0;
#X connect 8 0 14 0;
#X connect 8 0 17 0;
#X connect 9 0 8 0;
#X connect 10 0 11 1;
#X connect 11 0 10 0;
#X connect 11 0 16 0;
#X connect 12 0 2 0;
#X connect 13 0 2 0;
#X connect 14 0 59 0;
#X connect 15 0 59 0;
#X connect 16 0 58 0;
#X connect 17 0 15 0;
#X connect 19 0 20 0;
#X connect 21 0 22 0;
#X connect 21 0 27 0;
#X connect 21 0 35 0;
#X connect 22 0 24 0;
#X connect 23 3 37 0;
#X connect 24 0 26 0;
#X connect 24 1 25 1;
#X connect 25 0 23 0;
#X connect 26 0 25 0;
#X connect 27 0 28 0;
#X connect 28 0 30 0;
#X connect 28 1 29 1;
#X connect 29 0 31 0;
#X connect 30 0 29 0;
#X connect 31 4 46 0;
#X connect 32 0 34 0;
#X connect 32 1 33 1;
#X connect 33 0 36 0;
#X connect 34 0 33 0;
#X connect 35 0 32 0;
#X connect 38 0 51 0;
#X connect 39 0 50 0;
#X connect 40 0 48 0;
#X connect 41 0 44 0;
#X connect 42 0 45 0;
#X connect 43 0 49 0;
#X connect 44 0 52 0;
#X connect 45 0 53 0;
#X connect 47 0 54 0;
#X connect 48 0 41 0;
#X connect 49 0 42 0;
#X connect 50 0 48 1;
#X connect 50 0 49 1;
#X connect 51 0 39 0;
#X connect 52 0 18 0;
#X connect 53 0 18 1;
#X connect 54 0 56 0;
#X connect 54 0 62 0;
#X connect 55 0 45 1;
#X connect 55 0 44 1;
#X connect 56 0 55 0;
#X connect 57 0 8 0;
#X connect 58 0 60 0;
#X connect 59 0 61 0;
#X connect 60 0 3 0;
#X connect 61 0 3 0;
